<svg width="49" height="26" viewBox="0 0 49 26" fill="none" xmlns="http://www.w3.org/2000/svg">
<path d="M0.777344 0.300781H9.74219C13.2344 0.300781 15.8242 0.822266 17.5117 1.86523C19.2109 2.89648 20.0605 4.50781 20.0605 6.69922C20.0605 8.14062 19.6914 9.37109 18.9531 10.3906C18.2148 11.4102 17.2422 12.0664 16.0352 12.3594V12.5352C17.6289 12.957 18.7832 13.6602 19.498 14.6445C20.2129 15.6289 20.5703 16.9062 20.5703 18.4766C20.5703 20.8086 19.6914 22.6484 17.9336 23.9961C16.1875 25.332 13.8027 26 10.7793 26H0.777344V0.300781ZM7.7207 10.1621H9.8125C10.8086 10.1621 11.5762 9.95703 12.1152 9.54688C12.666 9.13672 12.9414 8.52734 12.9414 7.71875C12.9414 6.27734 11.8516 5.55664 9.67188 5.55664H7.7207V10.1621ZM7.7207 15.2422V20.6387H10.1641C12.332 20.6387 13.416 19.7246 13.416 17.8965C13.416 17.041 13.123 16.3848 12.5371 15.9277C11.9629 15.4707 11.125 15.2422 10.0234 15.2422H7.7207ZM40.8027 26L39.5371 21.1836H31.1875L29.8867 26H22.2578L30.6426 0.195312H39.9062L48.3965 26H40.8027ZM38.0957 15.4883L36.9883 11.2695C36.7305 10.332 36.4141 9.11914 36.0391 7.63086C35.6758 6.14258 35.4355 5.07617 35.3184 4.43164C35.2129 5.0293 35.002 6.01367 34.6855 7.38477C34.3809 8.75586 33.6953 11.457 32.6289 15.4883H38.0957Z" fill="white"/>
</svg>
